# xmcd CD database file
#
# Track frame offsets:
#	150
#	6648
#	23118
#	35049
#	52033
#	69207
#	85938
#	98019
#	112052
#	125765
#	137465
#
# Disc length: 2090 seconds
#
# Revision: 0
# Processed by: cddbd v1.5PL3 Copyright (c) Steve Scherf et al.
# Submitted via: CDex 1.51
#
DISCID=9608280b
DTITLE=PINE*am - Playing Intense Neutral Electronica ad nauseAM
DYEAR=1900
DGENRE=Pop
TTITLE0=theme
TTITLE1=pup tail
TTITLE2=snow! snow!
TTITLE3=triangle
TTITLE4=morning obscura
TTITLE5=phenomena
TTITLE6=rayon cosmetique
TTITLE7=mushroom cloud
TTITLE8=subway runaway
TTITLE9=vacancy
TTITLE10=far star lover()
EXTD=
EXTT0=
EXTT1=
EXTT2=
EXTT3=
EXTT4=
EXTT5=
EXTT6=
EXTT7=
EXTT8=
EXTT9=
EXTT10=
PLAYORDER=
